<svg t="1691138916485" class="icon" viewBox="0 0 1184 1024" version="1.1" xmlns="http://www.w3.org/2000/svg" p-id="7401" id="mx_n_1691138916485" width="200" height="200"><path d="M1127.164179 810.029851h-1069.850746A58.077612 58.077612 0 0 1 0 752.716418V57.313433A58.077612 58.077612 0 0 1 57.313433 0h1069.850746a58.077612 58.077612 0 0 1 57.313433 57.313433v695.402985a58.077612 58.077612 0 0 1-57.313433 57.313433zM114.626866 695.402985H1069.850746V114.626866H114.626866z"  p-id="7402"></path><path d="M378.268657 622.80597a58.077612 58.077612 0 0 1-57.313433-57.313433V458.507463a59.223881 59.223881 0 0 1 118.447761 0v106.985074a58.077612 58.077612 0 0 1-61.134328 57.313433zM592.238806 970.507463a58.077612 58.077612 0 0 1-57.313433-57.313433v-160.477612a57.313433 57.313433 0 1 1 114.626866 0v160.477612a58.077612 58.077612 0 0 1-57.313433 57.313433zM592.238806 622.80597A58.077612 58.077612 0 0 1 534.925373 565.492537V351.522388a57.313433 57.313433 0 0 1 114.626866 0v213.970149a58.077612 58.077612 0 0 1-57.313433 57.313433zM806.208955 622.80597a58.077612 58.077612 0 0 1-57.313433-57.313433V244.537313a57.313433 57.313433 0 0 1 114.626866 0v320.955224a58.077612 58.077612 0 0 1-57.313433 57.313433z"  p-id="7403"></path><path d="M913.19403 1024h-641.910448a57.313433 57.313433 0 0 1 0-114.626866h641.910448a57.313433 57.313433 0 0 1 0 114.626866z"  p-id="7404"></path></svg>