<svg id="图层_1" data-name="图层 1" xmlns="http://www.w3.org/2000/svg" viewBox="0 0 20 20"><defs><style>.cls-1{fill:#788994;}</style></defs><title>预览</title><g id="城投pc"><g id="选择点后操作-2d"><g id="编组-10"><g id="编组"><path id="形状" class="cls-1" d="M10.73,7.18A2.76,2.76,0,0,0,8,10a2.77,2.77,0,0,0,2.69,2.84A2.78,2.78,0,0,0,13.43,10a2.77,2.77,0,0,0-2.7-2.83Zm0,4.53A1.62,1.62,0,0,1,9.1,10a1.63,1.63,0,1,1,3.26,0,1.62,1.62,0,0,1-1.63,1.7Z" transform="translate(-0.74)"/><path class="cls-1" d="M17.84,0H3.64A2.91,2.91,0,0,0,.74,2.9V17.1A2.91,2.91,0,0,0,3.64,20h14.2a2.91,2.91,0,0,0,2.9-2.9V2.9A2.91,2.91,0,0,0,17.84,0ZM10.73,14.27A6.43,6.43,0,0,1,4.78,10a6.42,6.42,0,0,1,6-4.25,6.42,6.42,0,0,1,6,4.25A6.43,6.43,0,0,1,10.73,14.27Z" transform="translate(-0.74)"/></g></g></g></g></svg>