<svg id="图层_1" data-name="图层 1" xmlns="http://www.w3.org/2000/svg" viewBox="0 0 20 20"><defs><style>.cls-1{fill:#788994;}</style></defs><title>清空</title><g id="城投pc"><g id="选择点后操作-2d"><g id="编组-10"><g id="编组-8"><g id="编组"><path id="形状" class="cls-1" d="M8,2.37l9.9,9.9-5.06,7.2a1.31,1.31,0,0,1-.91.53,1.25,1.25,0,0,1-1-.36L9.1,17.85V14H5.28L.59,9.33a1.24,1.24,0,0,1-.36-1,1.23,1.23,0,0,1,.52-.91L8,2.37Zm1.12-.79L11,.23a1.24,1.24,0,0,1,1.59.13L15.19,3,17.93.23a.63.63,0,0,1,.88,0l1,1A.63.63,0,0,1,20,1.7a.67.67,0,0,1-.18.44L17.1,4.87l2.76,2.76A1.24,1.24,0,0,1,20,9.22l-1.36,1.93L9.07,1.58Z" transform="translate(-0.22 0)"/></g></g></g></g></g></svg>