<svg t="1705409024247" class="icon" viewBox="0 0 1024 1024" version="1.1" xmlns="http://www.w3.org/2000/svg" p-id="4208" width="200" height="200"><path d="M810.666667 170.666667h-134.4V149.333333c0-12.8-8.533333-21.333333-21.333334-21.333333h-42.666666c-12.8 0-21.333333 8.533333-21.333334 21.333333v21.333334h-170.666666V149.333333c0-12.8-8.533333-21.333333-21.333334-21.333333h-42.666666c-12.8 0-21.333333 8.533333-21.333334 21.333333v21.333334H213.333333c-46.933333 0-85.333333 38.4-85.333333 85.333333v554.666667c0 46.933333 38.4 85.333333 85.333333 85.333333h597.333334c46.933333 0 85.333333-38.4 85.333333-85.333333V256c0-46.933333-38.4-85.333333-85.333333-85.333333z m0 597.333333c0 23.466667-19.2 42.666667-42.666667 42.666667H256c-23.466667 0-42.666667-19.2-42.666667-42.666667V469.333333c0-23.466667 19.2-42.666667 42.666667-42.666666h512c23.466667 0 42.666667 19.2 42.666667 42.666666v298.666667z m0-448c0 12.8-8.533333 21.333333-21.333334 21.333333H234.666667c-12.8 0-21.333333-8.533333-21.333334-21.333333v-42.666667c0-12.8 8.533333-21.333333 21.333334-21.333333h100.266666v21.333333c0 12.8 8.533333 21.333333 21.333334 21.333334h42.666666c12.8 0 21.333333-8.533333 21.333334-21.333334v-21.333333h170.666666v21.333333c0 12.8 8.533333 21.333333 21.333334 21.333334h42.666666c12.8 0 21.333333-8.533333 21.333334-21.333334v-21.333333H789.333333c12.8 0 21.333333 8.533333 21.333334 21.333333v42.666667z" fill="#448bf7" p-id="4209"></path><path d="M298.666667 503.466667h426.666666c12.8 0 21.333333 10.666667 21.333334 21.333333v42.666667c0 12.8-10.666667 21.333333-21.333334 21.333333H298.666667c-12.8 0-21.333333-10.666667-21.333334-21.333333v-42.666667c0-10.666667 10.666667-21.333333 21.333334-21.333333zM298.666667 640h426.666666c12.8 0 21.333333 10.666667 21.333334 21.333333v42.666667c0 12.8-10.666667 21.333333-21.333334 21.333333H298.666667c-12.8 0-21.333333-10.666667-21.333334-21.333333v-42.666667c0-10.666667 10.666667-21.333333 21.333334-21.333333z" fill="#448bf7" p-id="4210"></path></svg>