<?xml version="1.0" standalone="no"?><!DOCTYPE svg PUBLIC "-//W3C//DTD SVG 1.1//EN" "http://www.w3.org/Graphics/SVG/1.1/DTD/svg11.dtd"><svg t="1616735568306" class="icon" viewBox="0 0 1024 1024" version="1.1" xmlns="http://www.w3.org/2000/svg" p-id="11552" xmlns:xlink="http://www.w3.org/1999/xlink" width="200" height="200"><defs><style type="text/css"></style></defs><path d="M200.533333 170.666667h500.010667a29.866667 29.866667 0 0 1 27.989333 19.456l110.933334 298.410666a29.866667 29.866667 0 0 1 0 20.821334l-110.933334 298.368a29.866667 29.866667 0 0 1-27.989333 19.456H200.533333a29.866667 29.866667 0 0 1-29.866666-29.866667V200.533333a29.866667 29.866667 0 0 1 29.866666-29.866666z" fill="#FFFFFF" p-id="11553"></path><path d="M200.533333 128h500.010667c30.293333 0 57.429333 19.285333 67.968 48.384l110.976 305.493333a75.946667 75.946667 0 0 1 0 51.754667l-110.933333 305.493333a72.618667 72.618667 0 0 1-68.010667 48.341334H200.533333c-40.064 0-72.533333-33.28-72.533333-74.24V202.24C128 161.28 160.469333 128 200.533333 128z m500.010667 43.690667H200.533333c-16.512 0-29.866667 13.653333-29.866666 30.549333v610.986667c0 16.853333 13.354667 30.549333 29.866666 30.549333h500.010667a29.909333 29.909333 0 0 0 27.989333-19.882667l110.933334-305.493333a31.274667 31.274667 0 0 0 0-21.333333l-110.933334-305.493334a29.909333 29.909333 0 0 0-27.989333-19.882666z" fill="#000000" fill-opacity=".38" p-id="11554"></path></svg>