<svg t="1705408926978" class="icon" viewBox="0 0 1024 1024" version="1.1" xmlns="http://www.w3.org/2000/svg" p-id="3105" width="200" height="200"><path d="M810.666667 128H213.333333c-46.933333 0-85.333333 38.4-85.333333 85.333333v597.333334c0 46.933333 38.4 85.333333 85.333333 85.333333h597.333334c46.933333 0 85.333333-38.4 85.333333-85.333333V213.333333c0-46.933333-38.4-85.333333-85.333333-85.333333z m0 640c0 23.466667-19.2 42.666667-42.666667 42.666667H256c-23.466667 0-42.666667-19.2-42.666667-42.666667V256c0-23.466667 19.2-42.666667 42.666667-42.666667h512c23.466667 0 42.666667 19.2 42.666667 42.666667v512z" fill="#448bf7" p-id="3106"></path><path d="M704 298.666667H320c-10.666667 0-21.333333 8.533333-21.333333 21.333333v42.666667c0 10.666667 8.533333 21.333333 21.333333 21.333333h149.333333v320c0 10.666667 8.533333 21.333333 21.333334 21.333333h42.666666c10.666667 0 21.333333-8.533333 21.333334-21.333333V384h149.333333c10.666667 0 21.333333-8.533333 21.333333-21.333333v-42.666667c0-12.8-8.533333-21.333333-21.333333-21.333333z" fill="#448bf7" p-id="3107"></path></svg>