<?xml version="1.0" standalone="no"?><!DOCTYPE svg PUBLIC "-//W3C//DTD SVG 1.1//EN" "http://www.w3.org/Graphics/SVG/1.1/DTD/svg11.dtd"><svg t="1616737762673" class="icon" viewBox="0 0 1024 1024" version="1.1" xmlns="http://www.w3.org/2000/svg" p-id="23465" xmlns:xlink="http://www.w3.org/1999/xlink" width="200" height="200"><defs><style type="text/css"></style></defs><path d="M221.866667 192h500.010666a29.866667 29.866667 0 0 1 27.989334 19.456l110.933333 298.410667a29.866667 29.866667 0 0 1 0 20.821333l-110.933333 298.368a29.866667 29.866667 0 0 1-27.989334 19.456H221.866667a29.866667 29.866667 0 0 1-29.866667-29.866667V221.866667a29.866667 29.866667 0 0 1 29.866667-29.866667z" fill="#FFFFFF" p-id="23466"></path><path d="M721.877333 149.333333H221.866667c-40.064 0-72.533333 33.28-72.533334 74.24v610.986667c0 40.96 32.469333 74.24 72.533334 74.24h500.010666c30.293333 0 57.429333-19.285333 67.968-48.384l110.976-305.493333a75.946667 75.946667 0 0 0 0-51.754667l-110.933333-305.493333A72.618667 72.618667 0 0 0 721.834667 149.333333zM221.866667 193.024h500.010666c12.458667 0 23.637333 7.936 27.989334 19.925333l110.933333 305.493334a31.274667 31.274667 0 0 1 0 21.290666l-110.933333 305.493334a29.909333 29.909333 0 0 1-27.989334 19.882666H221.866667c-16.512 0-29.866667-13.653333-29.866667-30.549333V223.573333c0-16.853333 13.354667-30.549333 29.866667-30.549333z m270.421333 545.962667c66.901333 0 118.272-20.181333 154.112-59.904 34.048-37.930667 51.370667-91.136 51.370667-158.378667 0-68.48-16.128-121.685333-47.786667-158.378667-34.645333-40.362667-85.418667-59.946667-152.917333-59.946666H344.149333V738.986667h148.138667z m-8.362667-43.392H393.130667V345.813333h96.170666c56.149333 0 96.768 14.677333 123.050667 44.629334 24.490667 28.16 37.034667 71.552 37.034667 130.261333 0 56.874667-13.738667 100.266667-40.021334 129.621333-28.074667 29.952-69.888 45.226667-125.44 45.226667z" fill="#000000" fill-opacity=".38" p-id="23467"></path></svg>