<?xml version="1.0" standalone="no"?><!DOCTYPE svg PUBLIC "-//W3C//DTD SVG 1.1//EN" "http://www.w3.org/Graphics/SVG/1.1/DTD/svg11.dtd"><svg t="1616737766773" class="icon" viewBox="0 0 1024 1024" version="1.1" xmlns="http://www.w3.org/2000/svg" p-id="23592" xmlns:xlink="http://www.w3.org/1999/xlink" width="200" height="200"><defs><style type="text/css"></style></defs><path d="M221.866667 192h500.010666a29.866667 29.866667 0 0 1 27.989334 19.456l110.933333 298.410667a29.866667 29.866667 0 0 1 0 20.821333l-110.933333 298.368a29.866667 29.866667 0 0 1-27.989334 19.456H221.866667a29.866667 29.866667 0 0 1-29.866667-29.866667V221.866667a29.866667 29.866667 0 0 1 29.866667-29.866667z" fill="#FFFFFF" p-id="23593"></path><path d="M721.877333 149.333333H221.866667a72.533333 72.533333 0 0 0-72.533334 72.533334v596.778666a72.533333 72.533333 0 0 0 72.533334 72.533334h500.010666a72.533333 72.533333 0 0 0 67.968-47.232l110.976-298.410667a72.533333 72.533333 0 0 0 0-50.56l-110.933333-298.410667A72.533333 72.533333 0 0 0 721.834667 149.333333zM221.866667 192h500.010666a29.866667 29.866667 0 0 1 27.989334 19.456l110.933333 298.410667a29.866667 29.866667 0 0 1 0 20.821333l-110.933333 298.368a29.866667 29.866667 0 0 1-27.989334 19.456H221.866667a29.866667 29.866667 0 0 1-29.866667-29.866667V221.866667a29.866667 29.866667 0 0 1 29.866667-29.866667zM531.029333 725.333333v-149.205333L669.141333 337.066667h-49.365333l-108.16 191.914666h-0.554667L400.128 337.066667H346.325333l138.666667 239.616V725.333333h46.037333z" fill="#000000" fill-opacity=".38" p-id="23594"></path></svg>