<svg
  class="icon"
  viewBox="0 0 1024 1024"
  xmlns="http://www.w3.org/2000/svg"
  width="200"
  height="200"
>
  <defs>
    <style type="text/css"></style>
  </defs>
  <path
    d="M442.368 559.104c19.882667 40.106667 26.965333 89.941333 26.965333 123.562667h85.333334c0-33.621333 7.082667-83.456 26.965333-123.562667 20.608-41.557333 47.445333-60.074667 79.701333-60.074667 81.024 0 130.56-39.082667 157.568-80.981333C845.184 377.258667 853.333333 329.941333 853.333333 298.666667h-85.333333c0 24.362667-6.784 60.586667-25.301333 89.301333-17.834667 27.690667-42.922667 44.245333-81.365334 44.245333-45.568 0-80.341333 14.72-106.666666 35.669334V298.666667h-85.333334v169.216c-26.325333-20.949333-61.098667-35.669333-106.666666-35.669334-38.442667 0-63.573333-16.554667-81.365334-44.245333C262.784 359.253333 256 323.029333 256 298.666667H170.666667c0 31.274667 8.149333 78.592 34.432 119.381333 26.965333 41.898667 76.544 80.981333 157.568 80.981333 32.256 0 59.093333 18.517333 79.701333 60.074667z"
    fill="#FFCF71"></path>
  <path d="M512 85.333333l73.898667 128h-147.797334L512 85.333333z" fill="#FF8F08"></path>
  <path
    d="M213.333333 160m-74.666666 0a74.666667 74.666667 0 1 0 149.333333 0 74.666667 74.666667 0 1 0-149.333333 0Z"
    fill="#FF8F08"></path>
  <path
    d="M426.666667 789.333333a42.666667 42.666667 0 0 1 42.666666-42.666666h85.333334a42.666667 42.666667 0 0 1 42.666666 42.666666v85.333334a42.666667 42.666667 0 0 1-42.666666 42.666666h-85.333334a42.666667 42.666667 0 0 1-42.666666-42.666666v-85.333334zM810.666667 85.333333l19.157333 58.965334h61.994667l-50.133334 36.437333 19.157334 58.965333L810.666667 203.264l-50.176 36.437333 19.2-58.965333-50.176-36.437333h61.994666L810.666667 85.333333z"
    fill="#FF8F08"></path>
</svg>
