<svg
  class="icon"
  viewBox="0 0 1024 1024"
  xmlns="http://www.w3.org/2000/svg"
  width="200"
  height="200"
>
  <defs>
    <style type="text/css"></style>
  </defs>
  <path
    d="M242.688 541.866667A170.666667 170.666667 0 0 0 72.533333 712.021333a170.666667 170.666667 0 0 0 170.154667 170.197334 170.666667 170.666667 0 0 0 170.197333-170.197334A170.666667 170.666667 0 0 0 242.688 541.866667z"
    fill="#FF7A00"></path>
  <path
    d="M624.469333 170.666667a42.666667 42.666667 0 0 1 42.666667-42.666667h232.32a42.666667 42.666667 0 0 1 42.666667 42.666667v232.32a42.666667 42.666667 0 0 1-42.666667 42.666666h-232.32a42.666667 42.666667 0 0 1-42.666667-42.666666V170.666667z"
    fill="#FF8F09"></path>
  <path
    d="M704 850.432V768h42.666667a170.666667 170.666667 0 0 0 170.666666-170.666667v-42.666666h-85.333333v42.666666a85.333333 85.333333 0 0 1-85.333333 85.333334h-239.744a21.333333 21.333333 0 0 0-13.696 37.717333l175.786666 146.474667a21.333333 21.333333 0 0 0 34.986667-16.426667zM341.333333 149.333333v82.474667H298.666667a170.666667 170.666667 0 0 0-170.666667 170.666667v42.666666h85.333333v-42.666666a85.333333 85.333333 0 0 1 85.333334-85.333334h239.744a21.333333 21.333333 0 0 0 13.696-37.717333L376.32 132.949333A21.333333 21.333333 0 0 0 341.333333 149.333333z"
    fill="#FFBB99"></path>
</svg>
