<svg
  class="icon"
  viewBox="0 0 1024 1024"
  xmlns="http://www.w3.org/2000/svg"
  width="200"
  height="200"
>
  <defs>
    <style type="text/css"></style>
  </defs>
  <path
    d="M128 170.666667a42.666667 42.666667 0 0 1 42.666667-42.666667h426.666666a42.666667 42.666667 0 0 1 42.666667 42.666667v213.333333H384v256H170.666667a42.666667 42.666667 0 0 1-42.666667-42.666667V170.666667z m256 469.333333h256V384h213.333333a42.666667 42.666667 0 0 1 42.666667 42.666667v426.666666a42.666667 42.666667 0 0 1-42.666667 42.666667H426.666667a42.666667 42.666667 0 0 1-42.666667-42.666667v-213.333333z"
    fill="#7F92D7"></path>
</svg>
