<svg
  class="icon"
  viewBox="0 0 1024 1024"
  xmlns="http://www.w3.org/2000/svg"
  width="200"
  height="200"
>
  <defs>
    <style type="text/css"></style>
  </defs>
  <path
    d="M896 610.133333V768a128 128 0 0 1-128 128h-42.666667v-85.333333h42.666667a42.666667 42.666667 0 0 0 42.666667-42.666667v-174.933333a85.333333 85.333333 0 0 1 58.624-81.066667A85.333333 85.333333 0 0 1 810.666667 430.933333V256a42.666667 42.666667 0 0 0-42.666667-42.666667h-42.666667V128h42.666667a128 128 0 0 1 128 128v157.866667a64 64 0 0 0 64 64h21.333333v68.266666h-21.333333a64 64 0 0 0-64 64zM128 610.133333V768a128 128 0 0 0 128 128h42.666667v-85.333333H256a42.666667 42.666667 0 0 1-42.666667-42.666667v-174.933333A85.333333 85.333333 0 0 0 154.709333 512 85.333333 85.333333 0 0 0 213.333333 430.933333V256a42.666667 42.666667 0 0 1 42.666667-42.666667h42.666667V128H256a128 128 0 0 0-128 128v157.866667a64 64 0 0 1-64 64H42.666667v68.266666h21.333333A64 64 0 0 1 128 610.133333z"
    fill="#FF8F08"></path>
  <path
    d="M640 285.866667a85.333333 85.333333 0 0 0-80.981333 112.298666l-101.12 58.368a85.333333 85.333333 0 1 0-15.445334 104.832l116.992 67.541334a85.333333 85.333333 0 1 0 101.930667-54.485334v-120.576a85.333333 85.333333 0 0 0-21.376-167.978666z m-57.770667 148.138666c10.197333 9.386667 22.613333 16.298667 36.437334 19.84v120.576c-13.354667 3.413333-25.472 10.026667-35.413334 18.944l-117.973333-68.096c2.645333-8.234667 4.053333-16.981333 4.053333-26.069333l112.896-65.194667z"
    fill="#FFCF71"></path>
</svg>
