<svg t="1705408963222" class="icon" viewBox="0 0 1024 1024" version="1.1" xmlns="http://www.w3.org/2000/svg" p-id="3320" width="200" height="200"><path d="M704 469.333333h-149.333333v-192c0-12.8-10.666667-21.333333-21.333334-21.333333h-42.666666c-12.8 0-21.333333 10.666667-21.333334 21.333333v256c0 12.8 10.666667 21.333333 21.333334 21.333334h213.333333c12.8 0 21.333333-10.666667 21.333333-21.333334v-42.666666c0-10.666667-10.666667-21.333333-21.333333-21.333334z" fill="#448bf7" p-id="3321"></path><path d="M512 85.333333C277.333333 85.333333 85.333333 277.333333 85.333333 512s192 426.666667 426.666667 426.666667 426.666667-192 426.666667-426.666667S746.666667 85.333333 512 85.333333z m0 768c-187.733333 0-341.333333-153.6-341.333333-341.333333S324.266667 170.666667 512 170.666667s341.333333 153.6 341.333333 341.333333-153.6 341.333333-341.333333 341.333333z" fill="#448bf7" p-id="3322"></path></svg>