<svg t="1705408981905" class="icon" viewBox="0 0 1024 1024" version="1.1" xmlns="http://www.w3.org/2000/svg" p-id="3541" width="200" height="200"><path d="M874.666667 384c12.8 0 21.333333-10.666667 21.333333-21.333333v-42.666667c0-12.8-10.666667-21.333333-21.333333-21.333333h-149.333334V149.333333c0-12.8-10.666667-21.333333-21.333333-21.333333h-42.666667c-12.8 0-21.333333 10.666667-21.333333 21.333333v149.333334H384V149.333333c0-12.8-10.666667-21.333333-21.333333-21.333333h-42.666667c-12.8 0-21.333333 10.666667-21.333333 21.333333v149.333334H149.333333c-12.8 0-21.333333 10.666667-21.333333 21.333333v42.666667c0 12.8 10.666667 21.333333 21.333333 21.333333h149.333334v258.133333H149.333333c-12.8 0-21.333333 10.666667-21.333333 21.333334v42.666666c0 12.8 10.666667 21.333333 21.333333 21.333334h149.333334V874.666667c0 12.8 10.666667 21.333333 21.333333 21.333333h42.666667c12.8 0 21.333333-10.666667 21.333333-21.333333v-147.2h256V874.666667c0 12.8 10.666667 21.333333 21.333333 21.333333h42.666667c12.8 0 21.333333-10.666667 21.333333-21.333333v-147.2h149.333334c12.8 0 21.333333-10.666667 21.333333-21.333334v-42.666666c0-12.8-10.666667-21.333333-21.333333-21.333334h-149.333334V384h149.333334zM640 642.133333H384V384h256v258.133333z" fill="#448bf7" p-id="3542"></path></svg>