<svg
  class="icon"
  viewBox="0 0 1024 1024"
  xmlns="http://www.w3.org/2000/svg"
  width="200"
  height="200"
>
  <defs>
    <style type="text/css"></style>
  </defs>
  <path d="M384 256l128-192L640 256H384z" fill="#FF8F08"></path>
  <path
    d="M442.368 464.896C462.250667 424.832 469.333333 374.954667 469.333333 341.333333h85.333334c0 33.621333 7.082667 83.456 26.965333 123.562667 20.608 41.557333 47.445333 60.074667 79.701333 60.074667 81.024 0 130.56 39.082667 157.568 80.981333 26.282667 40.832 34.432 88.106667 34.432 119.381333h-85.333333c0-24.362667-6.784-60.586667-25.301333-89.301333-17.834667-27.690667-42.922667-44.245333-81.365334-44.245333-45.568 0-80.341333-14.72-106.666666-35.669334V725.333333h-85.333334v-169.216c-26.325333 20.949333-61.098667 35.669333-106.666666 35.669334-38.442667 0-63.573333 16.554667-81.365334 44.245333C262.784 664.746667 256 700.970667 256 725.333333H170.666667c0-31.274667 8.149333-78.549333 34.432-119.381333 26.965333-41.898667 76.544-80.981333 157.568-80.981333 32.256 0 59.093333-18.517333 79.701333-60.074667z"
    fill="#FFCF71"></path>
  <path
    d="M213.333333 868.266667m-74.666666 0a74.666667 74.666667 0 1 0 149.333333 0 74.666667 74.666667 0 1 0-149.333333 0Z"
    fill="#FF8F08"></path>
  <path
    d="M430.933333 832a42.666667 42.666667 0 0 1 42.666667-42.666667h74.666667a42.666667 42.666667 0 0 1 42.666666 42.666667v74.666667a42.666667 42.666667 0 0 1-42.666666 42.666666H473.6a42.666667 42.666667 0 0 1-42.666667-42.666666V832zM810.88 789.333333l19.2 59.008h62.122667l-50.261334 36.437334 19.2 59.008-50.261333-36.48-50.218667 36.48 19.2-59.008-50.261333-36.437334h62.08l19.2-59.008z"
    fill="#FF8F08"></path>
</svg>
