<?xml version="1.0" standalone="no"?><!DOCTYPE svg PUBLIC "-//W3C//DTD SVG 1.1//EN" "http://www.w3.org/Graphics/SVG/1.1/DTD/svg11.dtd"><svg t="1616737769978" class="icon" viewBox="0 0 1024 1024" version="1.1" xmlns="http://www.w3.org/2000/svg" p-id="23719" xmlns:xlink="http://www.w3.org/1999/xlink" width="200" height="200"><defs><style type="text/css"></style></defs><path d="M221.866667 192h500.010666a29.866667 29.866667 0 0 1 27.989334 19.456l110.933333 298.410667a29.866667 29.866667 0 0 1 0 20.821333l-110.933333 298.368a29.866667 29.866667 0 0 1-27.989334 19.456H221.866667a29.866667 29.866667 0 0 1-29.866667-29.866667V221.866667a29.866667 29.866667 0 0 1 29.866667-29.866667z" fill="#FFFFFF" p-id="23720"></path><path d="M721.877333 149.333333H221.866667c-40.064 0-72.533333 33.28-72.533334 74.24v610.986667c0 40.96 32.469333 74.24 72.533334 74.24h500.010666c30.293333 0 57.429333-19.285333 67.968-48.384l110.976-305.493333a75.946667 75.946667 0 0 0 0-51.754667l-110.933333-305.493333A72.618667 72.618667 0 0 0 721.834667 149.333333zM221.866667 193.024h500.010666c12.458667 0 23.637333 7.936 27.989334 19.925333l110.933333 305.493334a31.274667 31.274667 0 0 1 0 21.290666l-110.933333 305.493334a29.909333 29.909333 0 0 1-27.989334 19.882666H221.866667c-16.512 0-29.866667-13.653333-29.866667-30.549333V223.573333c0-16.853333 13.354667-30.549333 29.866667-30.549333z m433.962666 502.570667v43.392H343.424V302.378667h302.250667v43.434666H392.405333v146.133334h238.933334v43.434666h-238.933334v160.213334h263.424z" fill="#000000" fill-opacity=".38" p-id="23721"></path></svg>