<svg
  class="icon"
  viewBox="0 0 1024 1024"
  xmlns="http://www.w3.org/2000/svg"
  width="200"
  height="200"
>
  <defs>
    <style type="text/css"></style>
  </defs>
  <path
    d="M768 191.146667l-85.333333 25.685333V117.461333L789.333333 85.333333H853.333333v384h-85.333333zM426.666667 938.666667l-141.312-384H226.090667L85.333333 938.666667h78.805334l23.381333-67.968h137.514667L347.861333 938.666667H426.666667z m-121.770667-131.072H208.768l48.896-139.690667 47.274667 139.690667z"
    fill="#FF7A00"></path>
  <path
    d="M704 893.098667V810.666667h42.666667a170.666667 170.666667 0 0 0 170.666666-170.666667v-42.666667h-85.333333v42.666667a85.333333 85.333333 0 0 1-85.333333 85.333333h-239.744a21.333333 21.333333 0 0 0-13.696 37.717334l175.786666 146.474666a21.333333 21.333333 0 0 0 34.986667-16.426666zM341.333333 149.333333v82.474667H298.666667a170.666667 170.666667 0 0 0-170.666667 170.666667v42.666666h85.333333v-42.666666a85.333333 85.333333 0 0 1 85.333334-85.333334h239.744a21.333333 21.333333 0 0 0 13.696-37.717333L376.32 132.949333A21.333333 21.333333 0 0 0 341.333333 149.333333z"
    fill="#FFBB99"></path>
</svg>
