<?xml version="1.0" standalone="no"?><!DOCTYPE svg PUBLIC "-//W3C//DTD SVG 1.1//EN" "http://www.w3.org/Graphics/SVG/1.1/DTD/svg11.dtd"><svg t="1616737757444" class="icon" viewBox="0 0 1024 1024" version="1.1" xmlns="http://www.w3.org/2000/svg" p-id="23338" xmlns:xlink="http://www.w3.org/1999/xlink" width="200" height="200"><defs><style type="text/css"></style></defs><path d="M243.2 170.666667h563.2a29.866667 29.866667 0 0 1 29.866667 29.866666v614.4a29.866667 29.866667 0 0 1-29.866667 29.866667H243.2a29.866667 29.866667 0 0 1-26.88-42.88L359.04 507.733333 216.362667 213.546667A29.866667 29.866667 0 0 1 243.2 170.666667z" fill="#FFFFFF" p-id="23339"></path><path d="M806.4 128H243.2a72.533333 72.533333 0 0 0-31.616 7.253333l-5.845333 3.157334a72.533333 72.533333 0 0 0-27.776 93.781333L311.552 507.733333l-133.589333 275.541334A72.533333 72.533333 0 0 0 243.2 887.466667h563.2a72.533333 72.533333 0 0 0 72.533333-72.533334V200.533333A72.533333 72.533333 0 0 0 806.4 128zM243.2 170.666667h563.2a29.866667 29.866667 0 0 1 29.866667 29.866666v614.4a29.866667 29.866667 0 0 1-29.866667 29.866667H243.2a29.866667 29.866667 0 0 1-26.88-42.88L359.04 507.733333 216.32 213.546667A29.866667 29.866667 0 0 1 243.2 170.666667z m207.616 512l35.498667-107.605334h149.205333L672.128 682.666667h48.256l-130.901333-388.266667h-54.357334L405.333333 682.666667h45.482667z m171.946667-147.541334h-122.026667l58.24-182.485333h6.656l57.130667 182.485333z" fill="#000000" fill-opacity=".38" p-id="23340"></path></svg>