<svg
  class="icon"
  viewBox="0 0 1024 1024"
  xmlns="http://www.w3.org/2000/svg"
  width="200"
  height="200"
>
  <defs>
    <style type="text/css"></style>
  </defs>
  <path
    d="M718.08 181.674667a96.341333 96.341333 0 0 1-94.464 96.341333l-74.069333 203.648 144.426666 226.986667a96.341333 96.341333 0 1 1-48.213333 26.794666l-121.258667-190.549333a27.52 27.52 0 0 1-46.464-27.690667l10.496-28.842666-5.674666-8.96-209.877334-181.845334a96.341333 96.341333 0 1 1 37.632-40.234666l199.168 172.586666L570.453333 263.253333a96.341333 96.341333 0 1 1 147.712-81.493333z"
    fill="#73ABFF"></path>
  <path
    d="M406.954667 542.848a130.773333 130.773333 0 1 1 244.053333-66.218667l120.064 36.010667a96.341333 96.341333 0 1 1-21.461333 51.029333l-109.866667-32.938666a130.773333 130.773333 0 0 1-195.882667 52.992l-137.216 125.866666a96.341333 96.341333 0 1 1-41.088-36.992l141.397334-129.706666z"
    fill="#5390ED"></path>
</svg>
