<svg
  class="icon"
  viewBox="0 0 1024 1024"
  xmlns="http://www.w3.org/2000/svg"
  width="200"
  height="200"
>
  <defs>
    <style type="text/css"></style>
  </defs>
  <path
    d="M298.666667 229.632H199.125333A28.458667 28.458667 0 0 0 170.666667 258.133333v113.792c0 15.701333 12.714667 28.416 28.458666 28.416H298.666667v-170.666666z m85.333333 170.666667h440.874667A28.458667 28.458667 0 0 0 853.333333 371.882667V258.090667a28.458667 28.458667 0 0 0-28.458666-28.458667H384v170.666667z"
    fill="#5196FF"></path>
  <path
    d="M282.026667 170.666667a26.581333 26.581333 0 0 0-26.026667 27.093333v201.813333c0 14.933333 11.648 27.093333 26.026667 27.093334h41.728V170.666667H282.026667z m64.341333 0v256h267.605333c14.378667 0 26.026667-12.117333 26.026667-27.093334v-201.813333A26.581333 26.581333 0 0 0 613.973333 170.666667H346.368z"
    fill="#5390ED"></path>
  <path
    d="M170.666667 720.298667m28.458666 0l625.749334 0q28.458667 0 28.458666 28.458666l0 156.416q0 28.458667-28.458666 28.458667l-625.749334 0q-28.458667 0-28.458666-28.458667l0-156.416q0-28.458667 28.458666-28.458666Z"
    fill="#5390ED"></path>
  <path
    d="M483.541333 691.2H426.666667L512 768l85.333333-76.8H540.458667V597.333333H483.541333zM453.930667 42.666667a240.597333 240.597333 0 0 1 191.232 386.56l92.16 92.16a32 32 0 1 1-45.269334 45.226666l-92.16-92.117333A240.597333 240.597333 0 1 1 453.930667 42.666667z m0 64a176.597333 176.597333 0 1 0 122.197333 304.042666 32.682667 32.682667 0 0 1 5.248-5.248A176.597333 176.597333 0 0 0 453.930667 106.666667z"
    fill="#FFD600"></path>
</svg>
