<?xml version="1.0" standalone="no"?><!DOCTYPE svg PUBLIC "-//W3C//DTD SVG 1.1//EN" "http://www.w3.org/Graphics/SVG/1.1/DTD/svg11.dtd"><svg t="1616737780055" class="icon" viewBox="0 0 1024 1024" version="1.1" xmlns="http://www.w3.org/2000/svg" p-id="24100" xmlns:xlink="http://www.w3.org/1999/xlink" width="200" height="200"><defs><style type="text/css"></style></defs><path d="M256 174.933333h563.2a29.866667 29.866667 0 0 1 29.866667 29.866667v614.4a29.866667 29.866667 0 0 1-29.866667 29.866667H256a29.866667 29.866667 0 0 1-26.88-42.88L371.797333 512 229.12 217.813333A29.866667 29.866667 0 0 1 256 174.933333z" fill="#FFFFFF" p-id="24101"></path><path d="M819.2 132.266667H256a72.533333 72.533333 0 0 0-31.658667 7.253333l-5.802666 3.157333a72.533333 72.533333 0 0 0-27.818667 93.781334L324.352 512 190.72 787.541333A72.533333 72.533333 0 0 0 256 891.733333h563.2a72.533333 72.533333 0 0 0 72.533333-72.533333V204.8a72.533333 72.533333 0 0 0-72.533333-72.533333zM256 174.933333h563.2a29.866667 29.866667 0 0 1 29.866667 29.866667v614.4a29.866667 29.866667 0 0 1-29.866667 29.866667H256a29.866667 29.866667 0 0 1-26.88-42.88L371.797333 512 229.12 217.813333A29.866667 29.866667 0 0 1 256 174.933333z m327.082667 554.837334c18.133333 0 35.84-2.218667 53.248-6.656 17.365333-4.437333 32.853333-11.264 46.293333-20.522667 13.525333-9.258667 24.405333-21.162667 32.768-35.754667 8.32-14.634667 12.458667-31.914667 12.458667-51.882666 0-15.146667-2.389333-28.288-7.210667-39.381334a86.784 86.784 0 0 0-45.738667-46.592 134.784 134.784 0 0 0-31.914666-9.429333v-2.218667c12.586667-3.328 23.466667-8.106667 32.725333-14.421333 9.258667-6.272 16.810667-13.610667 22.741333-21.930667a95.957333 95.957333 0 0 0 17.749334-55.210666c0-19.2-3.968-34.901333-11.946667-47.104a85.845333 85.845333 0 0 0-30.208-28.586667 122.24 122.24 0 0 0-40.789333-13.866667 277.973333 277.973333 0 0 0-44.074667-3.584c-21.461333 0-41.216 0.725333-59.349333 2.218667-18.133333 1.493333-34.005333 3.328-47.701334 5.546667v382.165333c7.04 1.834667 15.146667 3.242667 24.405334 4.181333 9.258667 0.896 18.474667 1.621333 27.733333 2.176 9.258667 0.597333 18.133333 0.853333 26.624 0.853334h22.186667z m-26.069334-221.866667h-28.842666V375.893333c5.162667-1.109333 12.842667-1.962667 23.04-2.517333 10.154667-0.554667 21.333333-0.810667 33.536-0.810667 10.368 0 20.522667 0.938667 30.506666 2.773334 9.984 1.834667 18.858667 5.162667 26.624 9.984 7.765333 4.821333 13.952 11.264 18.56 19.413333 4.650667 8.106667 6.954667 18.304 6.954667 30.506667 0 8.874667-1.749333 17.024-5.248 24.405333-3.541333 7.381333-8.362667 14.08-14.421333 19.968a95.914667 95.914667 0 0 1-20.821334 15.232c-7.765333 4.266667-16.085333 7.893333-24.96 10.837333-5.930667 0.725333-13.312 1.28-22.186666 1.664-8.874667 0.384-16.469333 0.554667-22.741334 0.554667z m30.506667 181.930667a509.653333 509.653333 0 0 1-32.725333-1.109334l-15.530667-1.109333a59.52 59.52 0 0 1-11.093333-1.664v-139.221333h48.256c12.202667 0 24.405333 0.938667 36.608 2.773333 12.202667 1.834667 23.210667 5.376 33.024 10.538667 9.813333 5.162667 17.706667 12.373333 23.850666 21.632 6.101333 9.258667 9.130667 21.461333 9.130667 36.608 0 12.202667-2.474667 22.741333-7.466667 31.616a66.432 66.432 0 0 1-20.266666 22.186666 93.013333 93.013333 0 0 1-29.397334 13.312c-11.093333 2.986667-22.570667 4.437333-34.389333 4.437334z" fill="#000000" fill-opacity=".38" p-id="24102"></path></svg>