<svg
  class="icon"
  viewBox="0 0 1024 1024"
  xmlns="http://www.w3.org/2000/svg"
  width="200"
  height="200"
>
  <defs>
    <style type="text/css"></style>
  </defs>
  <path
    d="M512 54.272L240.469333 325.802667a384 384 0 1 0 543.061334 0L512 54.272zM300.8 386.133333L512 174.976V174.933333l211.2 211.2a297.685333 297.685333 0 0 1 86.186667 183.168c-64.768 20.138667-109.994667 27.904-144.853334 28.032h-1.493333c-47.658667-0.170667-75.776-14.805333-108.288-31.701333A565.12 565.12 0 0 0 512 544.938667c-85.034667-35.84-170.026667-59.733333-297.258667 23.04A297.728 297.728 0 0 1 300.8 386.133333z"
    fill="#7F92D7"></path>
</svg>
