<svg t="1705408991921" class="icon" viewBox="0 0 1024 1024" version="1.1" xmlns="http://www.w3.org/2000/svg" p-id="3761" width="200" height="200"><path d="M768 768h42.666667c23.466667 0 42.666667 19.2 42.666666 42.666667v42.666666c0 23.466667-19.2 42.666667-42.666666 42.666667h-42.666667c-23.466667 0-42.666667-19.2-42.666667-42.666667v-42.666666c0-23.466667 19.2-42.666667 42.666667-42.666667zM512 128h-128c-93.866667 0-170.666667 76.8-170.666667 170.666667v426.666666c0 93.866667 76.8 170.666667 170.666667 170.666667h128c93.866667 0 170.666667-76.8 170.666667-170.666667V298.666667c0-93.866667-76.8-170.666667-170.666667-170.666667z m85.333333 597.333333c0 46.933333-38.4 85.333333-85.333333 85.333334h-128c-46.933333 0-85.333333-38.4-85.333333-85.333334V298.666667c0-46.933333 38.4-85.333333 85.333333-85.333334h128c46.933333 0 85.333333 38.4 85.333333 85.333334v426.666666z" fill="#448bf7" p-id="3762"></path></svg>