<svg
  class="icon"
  viewBox="0 0 1024 1024"
  xmlns="http://www.w3.org/2000/svg"
  width="200"
  height="200"
>
  <defs>
    <style type="text/css"></style>
  </defs>
  <path
    d="M853.333333 128a42.666667 42.666667 0 0 1 42.666667 42.666667v682.666666a42.666667 42.666667 0 0 1-42.666667 42.666667H170.666667a42.666667 42.666667 0 0 1-42.666667-42.666667V170.666667a42.666667 42.666667 0 0 1 42.666667-42.666667z m-128 256a64 64 0 0 0-58.026666 91.093333l-51.2 61.013334a64.042667 64.042667 0 0 0-46.378667 3.456l-80.085333-80.085334a64 64 0 1 0-121.856 13.610667L315.306667 535.552a64 64 0 1 0 35.242666 24.405333l46.336-55.253333a63.744 63.744 0 0 0 70.357334-7.253333l72.277333 72.277333a64 64 0 1 0 110.890667-8.106667l46.976-56.021333A64 64 0 1 0 725.333333 384z"
    fill="#7F92D7"></path>
</svg>
