<svg
  class="icon"
  viewBox="0 0 1024 1024"
  xmlns="http://www.w3.org/2000/svg"
  width="200"
  height="200"
>
  <defs>
    <style type="text/css"></style>
  </defs>
  <path
    d="M128 469.333333m30.464 0l707.072 0q30.464 0 30.464 30.464l0 121.941334q0 30.464-30.464 30.464l-707.072 0q-30.464 0-30.464-30.464l0-121.941334q0-30.464 30.464-30.464Z"
    fill="#74ABFF"></path>
  <path
    d="M128 755.797333c0-16.810667 13.653333-30.464 30.464-30.464h707.072c16.810667 0 30.464 13.653333 30.464 30.464v121.898667c0 16.853333-13.653333 30.506667-30.464 30.506667H158.464A30.464 30.464 0 0 1 128 877.653333v-121.898666z"
    fill="#5390ED"></path>
  <path
    d="M158.464 128A30.464 30.464 0 0 0 128 158.464v121.898667c0 16.853333 13.653333 30.506667 30.464 30.506666h197.845333V128H158.464z m218.624 0v182.869333h269.824V128H377.088z m290.56 0v182.869333h197.888c16.810667 0 30.464-13.653333 30.464-30.506666V158.464A30.464 30.464 0 0 0 865.536 128h-197.845333z"
    fill="#5390ED"></path>
  <path
    d="M455.125333 443.733333H396.928a21.333333 21.333333 0 0 0-14.293333 37.205334l115.072 103.552a21.333333 21.333333 0 0 0 28.586666 0l115.029334-103.552a21.333333 21.333333 0 0 0-14.250667-37.205334h-58.197333V277.333333a21.333333 21.333333 0 0 0-21.333334-21.333333h-71.082666a21.333333 21.333333 0 0 0-21.333334 21.333333v166.4z"
    fill="#FFD600"></path>
</svg>
