<?xml version="1.0" standalone="no"?><!DOCTYPE svg PUBLIC "-//W3C//DTD SVG 1.1//EN" "http://www.w3.org/Graphics/SVG/1.1/DTD/svg11.dtd"><svg t="1616737776558" class="icon" viewBox="0 0 1024 1024" version="1.1" xmlns="http://www.w3.org/2000/svg" p-id="23973" xmlns:xlink="http://www.w3.org/1999/xlink" width="200" height="200"><defs><style type="text/css"></style></defs><path d="M221.866667 193.024h500.010666c12.458667 0 23.637333 7.936 27.989334 19.925333l110.933333 305.493334a31.274667 31.274667 0 0 1 0 21.290666l-110.933333 305.493334a29.909333 29.909333 0 0 1-27.989334 19.882666H221.866667c-16.512 0-29.866667-13.653333-29.866667-30.549333V223.573333c0-16.853333 13.354667-30.549333 29.866667-30.549333z" fill="#FFFFFF" p-id="23974"></path><path d="M721.877333 149.333333H221.866667c-40.064 0-72.533333 33.28-72.533334 74.24v610.986667c0 40.96 32.469333 74.24 72.533334 74.24h500.010666c30.293333 0 57.429333-19.285333 67.968-48.384l110.976-305.493333a75.946667 75.946667 0 0 0 0-51.754667l-110.933333-305.493333A72.618667 72.618667 0 0 0 721.834667 149.333333zM221.866667 193.024h500.010666c12.458667 0 23.637333 7.936 27.989334 19.925333l110.933333 305.493334a31.274667 31.274667 0 0 1 0 21.290666l-110.933333 305.493334a29.909333 29.909333 0 0 1-27.989334 19.882666H221.866667c-16.512 0-29.866667-13.653333-29.866667-30.549333V223.573333c0-16.853333 13.354667-30.549333 29.866667-30.549333z m394.581333 523.178667c-32.853333 26.282667-72.277333 39.765333-117.674667 39.765333-66.304 0-117.077333-22.613333-152.32-67.285333C314.197333 648.32 298.666667 595.754667 298.666667 530.901333c0-64.810667 16.128-118.016 48.981333-159.573333 35.84-46.506667 87.210667-69.12 152.917333-69.12 47.189333 0 87.210667 12.842667 119.466667 38.528 32.256 25.685333 51.370667 60.544 57.344 103.936H630.186667c-5.973333-31.786667-21.504-56.234667-45.397334-73.386667-23.296-16.469333-51.370667-24.448-84.821333-24.448-49.578667 0-87.808 17.749333-114.688 53.205334-25.088 33.024-37.632 76.458667-37.632 130.858666 0 54.442667 11.946667 97.834667 37.034667 129.664 26.282667 33.621333 63.914667 50.773333 114.090666 50.773334 34.048 0 62.72-9.216 86.613334-27.562667 25.088-19.541333 42.410667-48.298667 50.773333-86.186667h47.189333c-9.557333 50.773333-31.658667 90.453333-66.901333 118.613334z" fill="#000000" fill-opacity=".38" p-id="23975"></path></svg>