<svg class="icon" viewBox="0 0 1024 1024" xmlns="http://www.w3.org/2000/svg" width="200" height="200"><path d="M590.925 961.537h315.021c29.514 0 53.44-23.808 53.44-53.167V587.522c0-29.353-23.92-53.152-53.44-53.152H590.925c-29.514 0-53.43 23.8-53.43 53.152V908.37c0 29.36 23.916 53.167 53.43 53.167zM120.061 495.943h315.031c29.514 0 53.43-23.799 53.43-53.156V121.933c0-29.353-23.916-53.151-53.43-53.151h-315.03c-29.5 0-53.43 23.799-53.43 53.151v320.858c-.001 29.354 23.93 53.152 53.43 53.152zm6.092-353.474c0-7.644 6.32-13.86 14.07-13.86H414.93c7.759 0 14.069 6.216 14.069 13.86v279.788c0 7.644-6.31 13.86-14.069 13.86H140.223c-7.747 0-14.07-6.216-14.07-13.86V142.47zM120.061 961.535h315.031c29.514 0 53.43-23.799 53.43-53.156V587.525c0-29.353-23.916-53.151-53.43-53.151h-315.03c-29.5 0-53.43 23.799-53.43 53.151v320.858c-.001 29.353 23.93 53.152 53.43 53.152zm6.092-353.475c0-7.644 6.32-13.86 14.07-13.86H414.93c7.759 0 14.069 6.216 14.069 13.86v279.788c0 7.644-6.31 13.86-14.069 13.86H140.223c-7.747 0-14.07-6.216-14.07-13.86V608.06zM590.927 495.943h315.03c29.514 0 53.43-23.799 53.43-53.156V121.933c0-29.353-23.916-53.151-53.43-53.151h-315.03c-29.5 0-53.431 23.799-53.431 53.151v320.858c0 29.354 23.93 53.152 53.43 53.152zm6.091-353.474c0-7.644 6.32-13.86 14.07-13.86h274.707c7.759 0 14.069 6.216 14.069 13.86v279.788c0 7.644-6.31 13.86-14.069 13.86H611.088c-7.747 0-14.07-6.216-14.07-13.86V142.47zm-22.227-20.536"/></svg>