<?xml version="1.0" encoding="UTF-8"?>
<svg width="208px" height="43px" viewBox="0 0 208 43" version="1.1" xmlns="http://www.w3.org/2000/svg" xmlns:xlink="http://www.w3.org/1999/xlink">
    <title>编组 68</title>
    <g id="页面-2" stroke="none" stroke-width="1" fill="none" fill-rule="evenodd">
        <g id="编组-68" transform="translate(-0, -0)" fill="#E5E6EB">
            <path d="M41.2711156,0 L172.361226,3.55271368e-15 C180.032076,-1.14825667e-14 186.623604,5.44412486 188.073013,12.976798 L189.152828,18.588675 C191.143832,28.9360556 197.829068,37.7712316 207.245602,42.5 L207.245602,42.5 L207.245602,42.5 L38.1758908,42.5 L37.2722224,4.0940916 C37.220257,1.88556388 38.9684962,0.0530721652 41.177024,0.00110680688 C41.2083824,0.000368961151 41.2397484,-4.38327163e-16 41.2711156,-4.4408921e-16 Z" id="矩形"></path>
            <path d="M4.09522476,0 L124.226734,3.55271368e-15 C131.897585,-4.66948269e-15 138.489113,5.44412486 139.938521,12.976798 L141.018337,18.588675 C143.00934,28.9360556 149.694576,37.7712316 159.111111,42.5 L159.111111,42.5 L159.111111,42.5 L1,42.5 L0.0963315672,4.0940916 C0.0443662089,1.88556388 1.79260543,0.0530721652 4.00113316,0.00110680688 C4.0324916,0.000368961151 4.06385764,-1.32650558e-15 4.09522476,-1.33226763e-15 Z" id="矩形" transform="translate(79.5556, 21.25) scale(-1, 1) translate(-79.5556, -21.25)"></path>
        </g>
    </g>
</svg>