<svg t="1724122646479" class="icon" viewBox="0 0 1354 1024" version="1.1" xmlns="http://www.w3.org/2000/svg" p-id="9612" width="48" height="48"><path d="M147.07132459 375.99868425c14.74444063 16.3800376 28.83494975 31.46296591 43.26394652 46.16234314a11.96082831 11.96082831 0 0 1-17.07903255 16.75129866 1475.66610575 1475.66610575 0 0 1-43.96857439-46.91101026 11.96082831 11.96082831 0 0 1 17.7841725-16.00211946z m88.69196092 89.93325302c15.89560594 14.41773091 31.90284625 27.95570116 48.07958641 40.60315697a11.96082831 11.96082831 0 0 1-14.73368688 18.84879558c-16.65041807-13.01974102-33.09139371-26.93511733-49.40946911-41.71898846a11.96082831 11.96082831 0 1 1 16.07022666-17.72733117z m99.23167807 77.10554359a560.2093935 560.2093935 0 0 0 54.23074197 31.00055387 11.96082831 11.96082831 0 1 1-10.64623072 21.41433746 584.06007887 584.06007887 0 0 1-56.55304385-32.30790486 11.96082831 11.96082831 0 1 1 12.9685326-20.10698647zM446.64724419 597.98974944a381.75290824 381.75290824 0 0 0 59.99783432 15.04913075 11.96082831 11.96082831 0 0 1-3.87289289 23.6086183 405.63473404 405.63473404 0 0 1-63.75397198-15.98573276 11.96082831 11.96082831 0 0 1 7.62903055-22.67201629z m121.41209355 19.57083433a332.72118866 332.72118866 0 0 0 61.19969595-6.82249793 11.96082831 11.96082831 0 1 1 4.82639368 23.4334855 356.64284527 356.64284527 0 0 1-65.59798724 7.30744168 11.96082831 11.96082831 0 1 1-0.43373532-23.92406219z m119.60238795-24.98970943c20.80546934-9.41569237 36.3569547-20.87357654 46.85570516-33.88666047a11.96082831 11.96082831 0 1 1 18.6178456 15.00970027c-12.97416553 16.0978792-31.54694772 29.77616052-55.60620014 40.67587291a11.96082831 11.96082831 0 1 1-9.86735062-21.79891271zM750.67676016 507.17161492c-1.38672403-17.55834337-8.75100705-35.83821339-21.02566556-52.63457547a11.96082831 11.96082831 0 1 1 19.3060868-14.11867375c14.77260527 20.20786707 23.80525865 42.63766753 25.5704129 64.8698035A11.96082831 11.96082831 0 1 1 750.67676016 507.17161492z m-64.8759485-91.94062314c-17.84511052-10.30108595-36.81885466-15.95654396-54.87289554-16.11426589a11.96082831 11.96082831 0 1 1 0.21968412-23.91279634c22.37910412 0.19766451 45.34966551 7.03142827 66.61242606 19.31735263a11.96082831 11.96082831 0 1 1-11.96535964 20.71585462zM578.50175894 417.35102041c-16.95459608 13.23379223-27.18808693 28.59836685-30.81415521 45.1811898a11.96082831 11.96082831 0 1 1-23.36537831-5.10855208c4.87145708-22.26081267 18.26860418-42.37855292 39.45762457-58.93321124a11.96082831 11.96082831 0 0 1 14.72190895 18.86057352z m-21.28529226 98.79128568c8.50827914 15.5566062 21.72517259 30.66718703 38.97882586 44.33522668a11.96082831 11.96082831 0 1 1-14.85146623 18.75354791c-19.66761823-15.57401707-34.99276237-33.10931664-45.11922762-51.60323785a11.96082831 11.96082831 0 0 1 20.99186799-11.48553674z m90.73927358 75.21083201c17.86815432 8.00131577 37.43386779 14.57545284 58.3637736 19.54881469a11.96082831 11.96082831 0 0 1-5.52026778 23.26910648c-22.37807994-5.30519241-43.35407333-12.36478533-62.61458462-20.98009008a11.96082831 11.96082831 0 1 1 9.7710788-21.8378311z m120.10423048 29.06589971a472.13769257 472.13769257 0 0 0 62.20850183 0.63754484 11.96082831 11.96082831 0 1 1 1.2971093 23.88411962 496.05138302 496.05138302 0 0 1-65.36601307-0.67031823 11.96082831 11.96082831 0 0 1 1.86091402-23.85083415z m125.52310557-4.74702061a1146.95696533 1146.95696533 0 0 0 62.54135659-8.61581683 11.96082831 11.96082831 0 1 1 3.92410128 23.60247329 1170.86268961 1170.86268961 0 0 1-63.83283295 8.79094964 11.96082831 11.96082831 0 1 1-2.63262492-23.7776061z m124.41137076-20.86794361c20.87972155-4.8320266 41.1500629-10.27343341 60.79975818-16.31193042a11.96082831 11.96082831 0 1 1 7.02579535 22.86968081 914.9389118 914.9389118 0 0 1-62.42921012 16.7461778 11.96082831 11.96082831 0 1 1-5.39634341-23.30392819zM1243.03036498 603.23349174a11.96082831 11.96082831 0 0 0-22.64333958-7.71301235l-14.82944662 45.14073515a11.96082831 11.96082831 0 0 0 22.64897249 7.70737943z m-31.41175749-65.98665913a11.96082831 11.96082831 0 0 0-16.06356956-5.29443865 707.07353354 707.07353354 0 0 1-57.24128502 25.66617266 11.96082831 11.96082831 0 1 0 8.82935594 22.23776889 730.98794818 730.98794818 0 0 0 59.17542708-26.5403004 11.96082831 11.96082831 0 0 0 5.30007156-16.0692025z m-38.75811755-64.52619497a11.96082831 11.96082831 0 0 0-7.11643426-15.34767585l-59.88568787-21.96175548a11.96082831 11.96082831 0 0 0-8.24301953 22.45233215l59.89746581 21.97250926a11.96082831 11.96082831 0 0 0 15.34716377-7.114898zM1279.05344077 498.93934915l-53.4247214-19.59336601a11.96082831 11.96082831 0 0 0-8.23175367 22.45233215l31.45682091 11.62072698-7.26237825 24.3803292a11.96082831 11.96082831 0 0 0 22.64436373 7.70174652L1279.05344077 498.94037333z" fill="#ffffff" p-id="9613"></path></svg>