<svg t="1728355117659" class="icon" viewBox="0 0 1024 1024" version="1.1" xmlns="http://www.w3.org/2000/svg" p-id="77142" width="18" height="18"><path d="M918.6 67H587.4c-22.8 0-41.4 18.7-41.4 41.4v331.2c0 22.8 18.7 41.4 41.4 41.4h331.2c22.8 0 41.4-18.7 41.4-41.4V108.3c0.1-22.7-18.5-41.3-41.4-41.3z m-82.2 234.8H669.7c-17.6 0-32-12.5-32-27.8s14.4-27.8 32-27.8h166.9c17.6 0 32 12.5 32 27.8-0.2 15.3-14.5 27.8-32.2 27.8zM436.6 67H105.4C82.5 67 64 85.6 64 108.3v331.2c0 22.8 18.7 41.4 41.4 41.4h331.2c22.8 0 41.4-18.7 41.4-41.4V108.3c-0.1-22.7-18.6-41.3-41.4-41.3z m-82.3 234.8h-55.6v55.6c0 17.6-12.5 32-27.8 32-15.2 0-27.8-14.4-27.8-32v-55.6h-55.6c-17.6 0-32-12.5-32-27.7 0-15.3 14.4-27.8 32-27.8h55.6v-55.6c0-17.6 12.5-32 27.8-32s27.8 14.4 27.8 32v55.6h55.6c17.6 0 32 12.5 32 27.8 0 15.2-14.2 27.7-32 27.7zM436.6 543.1H105.4c-22.8 0-41.4 18.7-41.4 41.4v331.2c0 22.8 18.7 41.4 41.4 41.4h331.2c22.8 0 41.4-18.7 41.4-41.4V584.4c-0.1-22.8-18.6-41.3-41.4-41.3zM271 633.6c17.7 0 32 14.4 32 32 0 17.7-14.3 32.1-32 32.1s-32.1-14.4-32.1-32.1 14.4-32 32.1-32z m0 232.9c-17.7 0-32.1-14.4-32.1-32.1 0-17.7 14.4-32.1 32.1-32.1s32 14.4 32 32.1c0 17.8-14.3 32.1-32 32.1z m83.3-88.7H187.5c-17.6 0-32-12.5-32-27.8s14.4-27.8 32-27.8h166.9c17.6 0 32 12.5 32 27.8s-14.3 27.8-32.1 27.8zM918.6 543.1H587.4c-22.8 0-41.4 18.7-41.4 41.4v331.2c0 22.8 18.7 41.4 41.4 41.4h331.2c22.8 0 41.4-18.7 41.4-41.4V584.4c0.1-22.8-18.5-41.3-41.4-41.3z m-82.2 288.2H669.7c-17.6 0-32-12.5-32-27.7 0-15.3 14.4-27.8 32-27.8h166.9c17.6 0 32 12.5 32 27.8-0.1 15.2-14.5 27.7-32.2 27.7z m0-106.9H669.7c-17.6 0-32-12.5-32-27.8s14.4-27.8 32-27.8h166.9c17.6 0 32 12.5 32 27.8-0.1 15.4-14.5 27.8-32.2 27.8z" p-id="77143" fill="#000000"></path></svg>