<svg t="1719555900349" class="icon" viewBox="0 0 1024 1024" version="1.1" xmlns="http://www.w3.org/2000/svg" p-id="16176" width="400" height="72">
    <path d="M196.266667 181.333333a74.666667 74.666667 0 0 0-55.04 125.141334l4.992 4.949333 253.568 228.992-0.042667 236.117333c0 16.213333 12.032 29.568 27.648 31.701334l4.352 0.298666a32 32 0 0 0 31.701333-27.648l0.298667-4.352V512L189.141333 263.936a10.666667 10.666667 0 0 1 4.693334-18.346667L196.266667 245.333333h631.509333a10.666667 10.666667 0 0 1 9.002667 16.384l-1.834667 2.218667L560.128 512v384a32 32 0 0 0 63.701333 4.352l0.298667-4.352v-355.541333l253.696-229.034667a74.666667 74.666667 0 0 0 9.728-100.224l-4.352-5.248a74.666667 74.666667 0 0 0-48.426667-24.32l-6.997333-0.298667h-631.466667z" fill="#cccccc" p-id="6397"></path><path d="M824.874667 579.584a32 32 0 0 1 4.352 63.701333l-4.352 0.298667h-113.536a32 32 0 0 1-4.352-63.744l4.352-0.256h113.536zM824.874667 750.250667a32 32 0 0 1 4.352 63.701333l-4.352 0.298667h-113.536a32 32 0 0 1-4.352-63.744l4.352-0.256h113.536z" fill="#cccccc" p-id="6398"></path>
    <text fill="#cccccc" x="512" y="990" font-size="70px" text-anchor="middle" dominant-baseline="middle">先拖入条件组件，后绑定字段</text>
</svg>