<?xml version="1.0" encoding="UTF-8"?>
<svg width="12px" height="12px" viewBox="0 0 12 12" version="1.1" xmlns="http://www.w3.org/2000/svg" xmlns:xlink="http://www.w3.org/1999/xlink">
    <title>group</title>
    <g id="group" stroke="none" stroke-width="1" fill="none" fill-rule="evenodd">
        <path d="M0,6 L0,1 L3,1 L3,6 L0,6 Z M2,2 L1,2 L1,5 L2,5 L2,2 Z M2,11 L2,8 L1,8 L1,11 L2,11 Z M0,12 L0,7 L3,7 L3,12 L0,12 Z M4,2 L12,2 L12,3 L4,3 L4,2 Z M4,4 L12,4 L12,5 L4,5 L4,4 Z M4,8 L12,8 L12,9 L4,9 L4,8 Z M4,10 L12,10 L12,11 L4,11 L4,10 Z" id="形状" fill="#2B7049"></path>
    </g>
</svg>