<svg t="1725241064313" class="icon" viewBox="0 0 1097 1024" version="1.1" xmlns="http://www.w3.org/2000/svg" p-id="1976" width="48" height="48"><path d="M365.714286 329.142857q0 45.714286-32 77.714286t-77.714286 32-77.714286-32-32-77.714286 32-77.714286 77.714286-32 77.714286 32 32 77.714286z m585.142857 219.428572v256H146.285714v-109.714286l182.857143-182.857143 91.428572 91.428571 292.571428-292.571428z m54.857143-402.285715H91.428571q-7.428571 0-12.857142 5.428572T73.142857 164.571429v694.857142q0 7.428571 5.428572 12.857143T91.428571 877.714286h914.285715q7.428571 0 12.857143-5.428572t5.428571-12.857143V164.571429q0-7.428571-5.428571-12.857143T1005.714286 146.285714z m91.428571 18.285715v694.857142q0 37.714286-26.857143 64.571429t-64.571428 26.857143H91.428571q-37.714286 0-64.571428-26.857143t-26.857143-64.571429V164.571429q0-37.714286 26.857143-64.571429t64.571428-26.857143h914.285715q37.714286 0 64.571428 26.857143t26.857143 64.571429z" p-id="1977" fill="#000000"></path></svg>