<?xml version="1.0" standalone="no"?><!DOCTYPE svg PUBLIC "-//W3C//DTD SVG 1.1//EN" "http://www.w3.org/Graphics/SVG/1.1/DTD/svg11.dtd"><svg class="icon" width="200px" height="186.01px" viewBox="0 0 1101 1024" version="1.1" xmlns="http://www.w3.org/2000/svg"><path d="M29.952 24.533178h56.500653v56.500654H29.952V24.533178z m0 111.514448h56.500653v56.500653H29.952V136.047626z m0 113.001307h56.500653v56.500653H29.952v-56.500653z m0 111.514447h56.500653v56.500654H29.952v-56.500654z m0 111.514448h56.500653v56.500653H29.952v-56.500653z m0 113.001307h56.500653v56.500653H29.952v-56.500653z m0 111.514447h56.500653V753.094236H29.952v-56.500654z m0 111.514448h56.500653v56.500653H29.952v-56.500653z m0 111.514447h56.500653V976.123131H29.952v-56.500654z m111.514448 0h56.500653V976.123131H141.466448v-56.500654z m113.001306 0h56.500654V976.123131h-56.500654v-56.500654z m111.514448 0h56.500653V976.123131h-56.500653v-56.500654z m111.514447 0h56.500654V976.123131h-56.500654v-56.500654z m113.001307 0h56.500654V976.123131h-56.500654v-56.500654z m111.514448 0H758.513057V976.123131h-56.500653v-56.500654z m111.514447 0h56.500654V976.123131h-56.500654v-56.500654z m111.514448 0H981.541952V976.123131h-56.500653v-56.500654z m0-111.514447H981.541952v56.500653h-56.500653v-56.500653z m0-111.514448H981.541952V753.094236h-56.500653v-56.500654z m0-111.514447H981.541952v56.500653h-56.500653v-56.500653z m0-113.001307H981.541952v56.500653h-56.500653v-56.500653z m0-111.514448H981.541952v56.500654h-56.500653v-56.500654z m0-111.514447H981.541952v56.500653h-56.500653v-56.500653z m0-113.001307H981.541952v56.500653h-56.500653V136.047626z m0-111.514448H981.541952v56.500654h-56.500653V24.533178z m-111.514448 0h56.500654v56.500654h-56.500654V24.533178z m-111.514447 0H758.513057v56.500654h-56.500653V24.533178z m-111.514448 0h56.500654v56.500654h-56.500654V24.533178z m-113.001307 0h56.500654v56.500654h-56.500654V24.533178z m-111.514447 0h56.500653v56.500654h-56.500653V24.533178z m-111.514448 0h56.500654v56.500654h-56.500654V24.533178zM141.466448 24.533178h56.500653v56.500654H141.466448V24.533178z" fill="#999999" /><path d="M42.069903 0l984.062959 984.062959-39.951909 39.95191L2.117994 39.951909z" fill="#040000" /></svg>