<svg t="1728715854720" class="icon" viewBox="0 0 1024 1024" version="1.1" xmlns="http://www.w3.org/2000/svg" p-id="10412" width="18" height="18"><path d="M173.641143 347.648c16.713143 0 27.867429-9.435429 27.867428-28.708571v-138.422858c0-18.011429-12.873143-29.586286-31.286857-29.586285-15.433143 0-24.868571 5.138286-35.584 12.434285l-29.988571 20.992c-9.014857 5.997714-13.714286 11.574857-13.714286 20.571429 0 11.154286 8.996571 18.852571 18.834286 18.852571 5.156571 0 8.155429-0.859429 15.451428-5.997714l19.712-13.275428h0.420572v114.413714c0 19.291429 11.574857 28.708571 28.288 28.708571z m148.717714-51.858286h586.715429c19.712 0 34.706286-14.994286 34.706285-34.285714 0-19.712-14.994286-34.724571-34.706285-34.724571H322.358857c-19.291429 0-34.285714 14.994286-34.285714 34.724571 0 19.273143 14.994286 34.285714 34.285714 34.285714zM104.649143 606.08h110.134857c11.995429 0 20.571429-8.155429 20.571429-20.150857 0-12.854857-8.576-20.992-20.571429-20.992H153.508571v-1.28l35.126858-28.306286c29.568-23.990857 40.722286-37.705143 40.722285-62.994286 0-34.285714-28.708571-57.417143-75.008-57.417142-40.704 0-70.710857 21.412571-70.710857 48.841142 0 13.714286 8.996571 21.010286 23.588572 21.010286 9.837714 0 16.694857-2.998857 22.272-12.854857 5.997714-10.294857 14.134857-15.872 25.709714-15.872 12.854857 0 21.430857 8.155429 21.430857 20.150857 0 10.294857-5.138286 19.291429-26.989714 36.864l-56.576 46.262857c-8.155429 6.875429-11.574857 14.592-11.574857 24.009143 0 13.293714 8.996571 22.710857 23.149714 22.710857z m217.709714-51.017143h586.715429a34.304 34.304 0 0 0 34.706285-34.706286c0-19.291429-14.994286-34.285714-34.706285-34.285714H322.358857c-19.291429 0-34.285714 14.994286-34.285714 34.285714 0 19.291429 14.994286 34.706286 34.285714 34.706286zM155.648 873.069714c50.56 0 81.005714-22.710857 81.005714-58.697143 0-23.588571-16.731429-39.862857-46.299428-42.441142v-1.28c21.851429-3.858286 38.582857-18.432 38.582857-43.300572 0-32.548571-31.725714-50.56-73.728-50.56-33.846857 0-70.272 15.853714-70.272 44.141714 0 11.995429 8.557714 20.571429 21.851428 20.571429 9.417143 0 13.714286-3.858286 19.712-10.294857 9.856-10.715429 17.993143-14.134857 28.288-14.134857 13.275429 0 23.131429 6.418286 23.131429 19.273143 0 12.013714-9.856 18.011429-27.428571 18.011428h-5.12c-12.013714 0-19.730286 5.997714-19.730286 18.432 0 11.574857 7.277714 18.432 19.712 18.432h5.577143c19.291429 0 29.568 6.418286 29.568 19.712 0 11.574857-10.715429 20.132571-24.868572 20.132572-15.414857 0-26.130286-8.557714-34.267428-16.713143-5.156571-4.717714-9.435429-8.137143-17.152-8.137143-14.134857 0-23.990857 8.137143-23.990857 21.430857 0 29.568 40.283429 45.421714 75.428571 45.421714z m166.710857-59.136h586.715429c19.712 0 34.706286-14.994286 34.706285-34.285714 0-19.712-14.994286-34.724571-34.706285-34.724571H322.358857c-19.291429 0-34.285714 14.994286-34.285714 34.724571 0 19.273143 14.994286 34.285714 34.285714 34.285714z" p-id="10413"></path></svg>