<svg t="1721200461344" class="icon" viewBox="0 0 1024 1024" version="1.1" xmlns="http://www.w3.org/2000/svg" p-id="4454" width="48" height="48"><path d="M408 640c62.76 0 115.59 42.51 131.268 100.308A36.384 36.384 0 0 1 544 740h336c19.882 0 36 16.118 36 36s-16.118 36-36 36H544c-1.605 0-3.186-0.105-4.735-0.309C523.59 869.49 470.76 912 408 912c-62.76 0-115.59-42.51-131.268-100.308A36.384 36.384 0 0 1 272 812H144c-19.882 0-36-16.118-36-36s16.118-36 36-36h128c1.605 0 3.186 0.105 4.735 0.309C292.41 682.51 345.24 640 408 640z m0 72c-35.346 0-64 28.654-64 64 0 35.346 28.654 64 64 64 35.346 0 64-28.654 64-64 0-35.346-28.654-64-64-64z m208-336c62.76 0 115.59 42.51 131.265 100.309 1.55-0.204 3.13-0.309 4.735-0.309h128c19.882 0 36 16.118 36 36s-16.118 36-36 36H752c-1.605 0-3.186-0.105-4.732-0.308C731.59 605.49 678.76 648 616 648c-62.76 0-115.59-42.51-131.265-100.309-1.55 0.204-3.13 0.309-4.735 0.309H144c-19.882 0-36-16.118-36-36s16.118-36 36-36h336c1.605 0 3.186 0.105 4.732 0.308C500.41 418.51 553.24 376 616 376z m0 72c-35.346 0-64 28.654-64 64 0 35.346 28.654 64 64 64 35.346 0 64-28.654 64-64 0-35.346-28.654-64-64-64zM408 112c62.76 0 115.59 42.51 131.268 100.308A36.384 36.384 0 0 1 544 212h336c19.882 0 36 16.118 36 36s-16.118 36-36 36H544c-1.605 0-3.186-0.105-4.735-0.309C523.59 341.49 470.76 384 408 384c-62.76 0-115.59-42.51-131.268-100.308A36.384 36.384 0 0 1 272 284H144c-19.882 0-36-16.118-36-36s16.118-36 36-36h128c1.605 0 3.186 0.105 4.735 0.309C292.41 154.51 345.24 112 408 112z m0 72c-35.346 0-64 28.654-64 64 0 35.346 28.654 64 64 64 35.346 0 64-28.654 64-64 0-35.346-28.654-64-64-64z" p-id="4455"></path></svg>