<?xml version="1.0" standalone="no"?><!DOCTYPE svg PUBLIC "-//W3C//DTD SVG 1.1//EN" "http://www.w3.org/Graphics/SVG/1.1/DTD/svg11.dtd"><svg t="1718936879460" class="icon" viewBox="0 0 1024 1024" version="1.1" xmlns="http://www.w3.org/2000/svg" p-id="7830" xmlns:xlink="http://www.w3.org/1999/xlink" width="48" height="48"><path d="M668.038095 512a39.009524 39.009524 0 0 1 39.009524 39.009524v312.07619a39.009524 39.009524 0 0 1-39.009524 39.009524H355.961905a39.009524 39.009524 0 0 1-39.009524-39.009524V551.009524a39.009524 39.009524 0 0 1 39.009524-39.009524h312.07619zM682.666667 121.904762a73.142857 73.142857 0 0 1 73.142857 73.142857v48.761905h97.523809a73.142857 73.142857 0 0 1 73.142857 73.142857v341.333333a73.142857 73.142857 0 0 1-73.142857 73.142857h-75.361523v-219.428571a73.142857 73.142857 0 0 0-68.85181-73.020952L704.853333 438.857143H319.171048a73.142857 73.142857 0 0 0-73.142858 73.142857l-0.02438 219.428571H170.666667a73.142857 73.142857 0 0 1-73.142857-73.142857V316.952381a73.142857 73.142857 0 0 1 73.142857-73.142857h97.523809V195.047619a73.142857 73.142857 0 0 1 73.142857-73.142857h341.333334z m-48.761905 536.380952H390.095238v73.142857h243.809524v-73.142857zM231.619048 341.333333a36.571429 36.571429 0 1 0 0 73.142857 36.571429 36.571429 0 0 0 0-73.142857zM682.666667 195.047619H341.333333v48.761905h341.333334V195.047619z" p-id="7831"></path></svg>